<?xml version="1.0" encoding="UTF-8" standalone="no"?>
<!-- Created with Inkscape (http://www.inkscape.org/) -->

<svg
   version="1.1"
   id="svg1"
   width="521.33331"
   height="608"
   viewBox="0 0 521.33331 608"
   sodipodi:docname="test.svg"
   inkscape:version="1.4 (86a8ad7, 2024-10-11)"
   xmlns:inkscape="http://www.inkscape.org/namespaces/inkscape"
   xmlns:sodipodi="http://sodipodi.sourceforge.net/DTD/sodipodi-0.dtd"
   xmlns="http://www.w3.org/2000/svg"
   xmlns:svg="http://www.w3.org/2000/svg">
  <defs
     id="defs1" />
  <sodipodi:namedview
     id="namedview1"
     pagecolor="#ffffff"
     bordercolor="#000000"
     borderopacity="0.25"
     inkscape:showpageshadow="2"
     inkscape:pageopacity="0.0"
     inkscape:pagecheckerboard="true"
     inkscape:deskcolor="#d1d1d1"
     inkscape:zoom="2.1248094"
     inkscape:cx="222.13758"
     inkscape:cy="245.90441"
     inkscape:window-width="3840"
     inkscape:window-height="2066"
     inkscape:window-x="-11"
     inkscape:window-y="-11"
     inkscape:window-maximized="1"
     inkscape:current-layer="g1" />
  <g
     inkscape:groupmode="layer"
     inkscape:label="Image"
     id="g1">
    <path
       style="fill:#ff0000"
       d="m 132.40668,599.37239 0.41782,-4.23555 9.99999,-0.5443 c 10.14278,-0.55208 14.21814,-2.12302 10.8722,-4.19092 -0.97469,-0.6024 -1.56968,-2.41409 -1.32219,-4.02598 l 0.44999,-2.93072 84.66667,-0.0559 c 46.56666,-0.0308 104.01666,0.006 127.66666,0.0815 l 43,0.13745 v 4 c 0,3.82998 2.0104,5.00139 7.08641,4.12909 1.7713,-0.3044 8.0864,5.17594 8.39613,7.28628 0.15726,1.07143 -0.82254,2.54128 -2.17732,3.26634 -1.57966,0.8454 -53.94015,1.31829 -145.96871,1.31829 H 131.98887 Z m 152.41781,-24.7942 c -5.13333,-0.19968 -10.23333,-0.74609 -11.33333,-1.21423 -1.1,-0.46815 -3.50379,-0.9772 -5.34175,-1.13124 -4.24309,-0.35561 -18.92825,-6.13064 -32.54359,-12.79798 -10.10947,-4.95054 -15.05854,-5.80248 -9.4459,-1.62604 5.47862,4.07672 20.18588,11.78941 26.64418,13.97257 l 6.68706,2.26049 -7.33334,-0.58484 c -16.27644,-1.29808 -27.80925,-5.0003 -39.33333,-12.62662 -2.93333,-1.9412 -7.98732,-5.18353 -11.23108,-7.20518 -6.71945,-4.18785 -18.3068,-15.79403 -19.48987,-19.52155 -0.43564,-1.37261 -1.57776,-2.49564 -2.53804,-2.49564 -0.96027,0 -3.11011,-3.15 -4.7774,-7 -3.52325,-8.13563 -7.98518,-24.53399 -6.95572,-25.56344 0.388,-0.388 0.0431,-1.50353 -0.76643,-2.47896 -1.43244,-1.72598 -2.26128,-12.81325 -1.86574,-24.9576 0.10748,-3.3 0.1572,-7.41028 0.11048,-9.13396 -0.13049,-4.8143 1.56153,-5.57641 9.54749,-4.30035 4.22465,0.67506 7.91053,0.66808 8.7498,-0.0166 2.7448,-2.23905 4.66572,4.68635 5.03206,18.14185 0.45782,16.81555 4.82399,28.57616 14.08641,37.9428 7.54108,7.62593 25.57069,21.36794 34.26626,26.11744 3.57415,1.95218 10.19594,5.58178 14.71509,8.06576 4.51916,2.48399 8.92848,4.51634 9.7985,4.51634 0.87001,0 3.47252,0.87612 5.78335,1.94692 24.56857,11.38477 52.5955,12.96816 68.33879,3.86083 5.44183,-3.14804 16.52938,-13.43039 16.52938,-15.32898 0,-0.54724 3.54816,-4.60987 7.88481,-9.02808 5.04229,-5.13712 8.21385,-9.61047 8.79754,-12.40856 2.06692,-9.90831 6.7953,-13.07704 14.62922,-9.80382 3.83361,1.60179 5.36996,1.692 7.38495,0.43362 2.03515,-1.27098 3.98545,-1.09908 9.74615,0.85905 6.12526,2.08204 7.92532,3.52221 12.04153,9.63403 5.88328,8.73559 7.78057,16.11475 5.8888,22.90339 -1.18821,4.26393 -1.51864,4.57057 -2.44068,2.26493 -0.58652,-1.46666 -3.43091,-5.27873 -6.32085,-8.47125 l -5.25445,-5.80458 -1.3544,3.88523 c -1.93883,5.56173 -5.26047,8.3906 -9.85218,8.3906 -7.54706,0 -9.17177,-1.89258 -8.80916,-10.26153 0.37202,-8.58574 -1.72924,-10.71115 -4.34535,-4.39531 -1.14778,2.771 -1.2968,5.0683 -0.45731,7.05026 0.68489,1.61695 0.91888,5.01343 0.51998,7.54771 -0.83988,5.33593 -5.23273,8.83223 -22.0586,17.55659 -5.86667,3.04192 -13.00554,6.75602 -15.86415,8.25357 -4.57952,2.39907 -7.75015,2.73425 -26.66667,2.81909 -11.80805,0.053 -25.66918,-0.0671 -30.80251,-0.26678 z m -86.66666,-3.27787 c -9.34831,-3.34299 -28.57729,-21.87994 -31.55372,-30.41812 -2.09675,-6.01476 -0.11297,-6.57817 4.48355,-1.27335 17.25296,19.91155 20.5289,23.08318 27.24408,26.37661 9.93925,4.87467 9.80804,8.88444 -0.17391,5.31486 z m 190.3168,-0.0257 c -1.67357,-2.07684 0.25934,-7.67468 2.64022,-7.64625 3.6407,0.0435 5.41253,2.32563 4.53136,5.83647 -0.93877,3.74039 -4.82548,4.72121 -7.17158,1.80978 z M 287.49116,553.04483 c -2.58179,-1.00915 -2.57118,-1.07269 0.33335,-1.99614 3.60102,-1.14489 24.63614,-16.2992 30.5089,-21.97949 l 4.17558,-4.03875 0.79108,3.95541 c 0.4351,2.17547 1.35955,3.9554 2.05435,3.9554 1.5517,0 4.60297,-8.8336 3.60758,-10.44417 -0.39532,-0.63963 0.16349,-2.30136 1.2418,-3.69273 1.92474,-2.48355 1.94432,-2.48349 1.07139,0.003 -1.76848,5.03771 6.55159,1.08512 13.82983,-6.57009 4.65901,-4.90032 8.19214,-7.44332 10.72697,-7.72082 2.07887,-0.22758 4.54255,-0.88522 5.47484,-1.4614 0.93229,-0.57619 2.02721,-0.71548 2.43316,-0.30953 1.94774,1.94774 -1.72055,7.95206 -10.88491,17.81662 -8.74666,9.41493 -14.08942,13.63327 -31.19546,24.63018 -3.12248,2.00734 -27.50868,9.22504 -30.36893,8.98843 -0.62308,-0.0515 -2.33287,-0.56276 -3.79953,-1.13605 z m -126.35242,-3.77557 c -5.26118,-5.49148 -12.64575,-22.61048 -15.18104,-35.19285 -1.95844,-9.71948 -2.03254,-12.82121 -0.58365,-24.43089 1.63578,-13.10718 5.19066,-25.73907 9.33354,-33.16578 2.35157,-4.21553 4.9444,-4.33399 4.49025,-0.20515 -1.38315,12.57491 -0.54044,26.28064 2.23652,36.37406 2.9625,10.76785 2.97603,11.09739 0.54719,13.33334 -2.10957,1.94203 -2.47725,4.22953 -2.40448,14.95927 0.0472,6.96667 0.54495,14.16667 1.10601,16 1.65331,5.40236 4.78013,11.82535 6.17709,12.68872 0.71371,0.44109 1.29766,1.36658 1.29766,2.05664 0,2.43202 -3.54169,1.21227 -7.01909,-2.41736 z m 117.95242,-0.59467 c -1.00202,-1.00202 -1.6,-5.98518 -1.6,-13.33333 0,-11.55102 -0.0506,-11.73333 -3.25465,-11.73333 -1.79005,0 -3.62546,-0.6 -4.07869,-1.33334 -0.45322,-0.73333 -0.18863,-1.33333 0.58798,-1.33333 0.77661,0 1.41202,-0.85714 1.41202,-1.90476 0,-2.00644 -3.48485,-6.09524 -5.19492,-6.09524 -0.55245,0 -0.7565,6.45 -0.45345,14.33333 0.44605,11.60303 0.15239,14.8413 -1.54164,17 -1.80721,2.30294 -2.27518,2.39387 -3.4309,0.66667 -0.73604,-1.1 -1.34744,-1.49073 -1.35867,-0.8683 -0.0112,0.62244 -2.19604,-0.15194 -4.85512,-1.72085 -2.65909,-1.5689 -5.13875,-2.54851 -5.51034,-2.17691 -0.3716,0.37159 -1.79598,-0.74866 -3.1653,-2.48946 -2.36776,-3.01012 -2.48966,-7.07795 -2.48966,-83.08147 0,-89.0308 0.70635,-82.36295 -9.08657,-85.77678 -2.4683,-0.86046 -4.24676,-2.40529 -4.24676,-3.68889 0,-1.84616 5.45829,-11.24172 16,-27.54144 1.1,-1.70083 5.40804,-8.6942 9.57343,-15.54083 7.94657,-13.06174 15.15458,-21.5346 17.62782,-20.72114 1.54971,0.50971 8.65553,11.39641 22.1769,33.9768 18.68938,31.21087 19.51123,35.16255 8.28852,39.8537 l -4.33334,1.81136 v 81.08302 81.08302 l -3.23463,3.03878 c -1.77904,1.67132 -3.85268,2.65679 -4.60809,2.18993 -0.7554,-0.46687 -2.36882,0.67027 -3.58538,2.52697 -2.35728,3.59766 -6.96736,4.44703 -9.63856,1.77582 z M 290.0218,349.47562 c 1.73616,-0.66622 1.38099,-1.81797 -2.13782,-6.93238 -2.32095,-3.37338 -5.65363,-8.86384 -7.40596,-12.20103 -1.75233,-3.33719 -4.26622,-7.17593 -5.58643,-8.53054 -2.32847,-2.38916 -2.50105,-2.32926 -5.76211,2 -3.30623,4.38921 -15.63832,24.81855 -15.63832,25.90643 0,0.87612 34.20731,0.64907 36.53064,-0.24248 z m -22.35389,-7.35329 c -2.16697,-3.09378 -1.42322,-5.92698 2.83938,-10.81623 1.88921,-2.16694 2.19036,-2.12787 5.13897,0.66667 5.20767,4.93555 3.92967,10.05826 -3.04176,12.19252 -2.10335,0.64392 -3.44292,0.0896 -4.93659,-2.04296 z m 110.74228,131.27414 c 0.21602,-16.61631 0.66211,-30.4808 0.99129,-30.80998 0.32919,-0.32919 1.67613,2.91597 2.99321,7.21146 3.39695,11.07875 3.41114,43.16581 0.0219,49.47664 -1.27998,2.38334 -2.79341,4.33334 -3.36319,4.33334 -0.56978,0 -0.85921,-13.59516 -0.64319,-30.21146 z m -32.38689,19.21146 c 0.46374,-1.65 1.22447,-8.85185 1.69051,-16.00411 0.46604,-7.15226 1.51836,-13.56101 2.3385,-14.24166 0.82014,-0.68065 4.03998,-1.42881 7.1552,-1.66256 8.20989,-0.61604 6.91636,-3.08605 -1.63557,-3.12315 -8.08669,-0.0351 -9.97788,-1.05315 -7.94452,-4.2767 1.42605,-2.26076 2.88618,-3.18321 8.5304,-5.38914 2.52763,-0.98788 0.15993,-1.30975 -9.79557,-1.33163 -7.2209,-0.0159 -13.60769,-0.54086 -14.19286,-1.16662 -0.58518,-0.62577 -1.44991,-2.97421 -1.92162,-5.21876 -0.72078,-3.42973 -0.33403,-4.36122 2.42347,-5.83699 4.38956,-2.34922 9.96753,-0.81158 14.14559,3.89943 4.41737,4.98084 10.07384,6.29858 11.95431,2.78489 0.76268,-1.42506 1.38668,-3.83047 1.38668,-5.34535 0,-3.85286 1.15644,-3.46856 6.22979,2.07025 4.8388,5.28275 7.7596,13.71331 6.49569,18.74913 -0.44389,1.76858 -0.38128,3.90455 0.13913,4.74659 1.66604,2.69571 0.94206,17.6652 -1.05148,21.74094 -1.10733,2.26393 -2.89461,3.86003 -4.20317,3.75358 -1.25214,-0.10185 -2.27663,0.59463 -2.27663,1.54773 0,2.42872 -10.61958,7.30413 -15.9098,7.30413 -3.92516,0 -4.31001,-0.3245 -3.55805,-3 z m 24.80119,-33 c 0,-0.73334 -0.9,-1.33334 -2,-1.33334 -1.1,0 -2,0.6 -2,1.33334 0,0.73333 0.9,1.33333 2,1.33333 1.1,0 2,-0.6 2,-1.33333 z m -160.64108,9.37473 c -2.57602,-4.1681 17.59392,-7.36435 22.63898,-3.58751 1.46552,1.09711 2.24356,2.41576 1.72899,2.93033 -1.3414,1.3414 -23.57452,1.941 -24.36797,0.65718 z m 102.01414,-0.43281 c -5.52604,-1.12646 -5.77461,-1.35074 -3.41183,-3.07845 4.8605,-3.55409 21.44661,-1.32895 20.89488,2.80319 -0.22712,1.70096 -9.75333,1.85095 -17.48305,0.27526 z M 178.49116,454.37948 c -8.89357,-2.82774 -10.33333,-3.70768 -10.33333,-6.31547 0,-1.66648 1.86215,-5.15084 4.13812,-7.74302 4.24243,-4.83186 7.86188,-6.15084 7.86188,-2.86499 0,1.74242 7.47693,6.15193 10.43143,6.15193 0.74897,0 2.0069,-1.95481 2.79541,-4.34402 2.10377,-6.37448 5.49068,-8.05576 11.32089,-5.61975 2.58497,1.08007 5.91922,1.96377 7.40944,1.96377 2.1914,0 2.70949,0.86505 2.70949,4.52401 0,5.16074 -1.5194,6.12206 -9.77571,6.18506 -5.69433,0.0435 -10.22429,2.33994 -10.22429,5.18327 0,0.8791 -0.6,1.22755 -1.33333,0.77432 -0.73333,-0.45322 -1.33333,0.0379 -1.33333,1.09139 0,4.05416 -3.32738,4.30091 -13.66667,1.0135 z m 45.31923,-9.60615 c -2.90022,-1.62305 -3.13331,-8.9367 -0.31923,-10.01657 1.1,-0.42211 2,-1.50189 2,-2.39951 0,-0.89763 1.5,-2.43482 3.33333,-3.41599 1.83333,-0.98117 3.33333,-2.28256 3.33333,-2.89197 0,-1.7428 2.66892,-1.29625 4.76191,0.79673 2.78527,2.78527 2.62344,17.53415 -0.20429,18.61925 -3.38654,1.29954 -7.22428,0.93444 -7.22428,-0.68727 0,-1.05279 -0.49842,-1.08295 -1.68077,-0.10168 -1.11098,0.92203 -2.46699,0.95492 -4,0.097 z m 81.97815,0.37994 c -2.44925,-1.55431 -0.64732,-14.58214 2.66493,-19.26727 2.09539,-2.9639 3.01212,-3.40586 4.50116,-2.17007 1.02842,0.85352 1.86986,2.09671 1.86986,2.76266 0,0.66594 2.07129,3.02943 4.60288,5.25219 5.11975,4.4952 6.66251,7.89026 5.39712,11.87715 -0.72715,2.29105 -2.0075,2.66379 -9.08985,2.64625 -4.53392,-0.0112 -9.00966,-0.50664 -9.9461,-1.10091 z M 161.68012,428.21198 c -6.04222,-7.68145 -4.69997,-17.76878 3.06753,-23.0532 4.75016,-3.23165 8.46829,-3.09561 11.38309,0.41651 1.19161,1.4358 0.8799,4.25759 -1.35671,12.28169 -1.59707,5.72969 -3.51253,11.16761 -4.25658,12.08428 -2.17047,2.67403 -5.95642,1.9332 -8.83733,-1.72928 z m 208.48436,0.39595 c -1.42229,-1.65 -3.03958,-6 -3.59398,-9.66667 -0.55441,-3.66667 -1.36354,-8.76667 -1.79809,-11.33333 -0.6447,-3.80795 -0.27573,-4.98012 2.0051,-6.3701 5.6112,-3.41955 14.67372,7.26793 14.70621,17.34311 0.004,1.2685 -0.95772,4.7185 -2.13734,7.66667 -2.44911,6.12094 -5.307,6.85559 -9.1819,2.36032 z m -46.10127,-3.74873 c -2.62366,-2.27548 -3.15526,-4.02587 -3.1932,-10.514 -0.0554,-9.46795 2.71885,-13.40394 9.44755,-13.40394 5.40469,0 7.17359,2.78459 7.17359,11.29259 0,6.4317 -3.29887,13.29811 -5.68145,11.82559 -0.76436,-0.4724 -2.11179,0.12853 -2.99428,1.33541 -1.47121,2.01199 -1.86607,1.96749 -4.75221,-0.53565 z m 23.75141,0.88545 c -2.92582,-2.22067 -6.20985,-12.79665 -5.35773,-17.2542 0.35101,-1.83622 2.0062,-4.62374 3.67818,-6.19448 2.86377,-2.69038 3.31686,-2.74022 7.81724,-0.85984 3.26461,1.36404 5.00338,3.07934 5.49139,5.41727 0.39276,1.88165 1.01927,4.89618 1.39224,6.69893 0.37296,1.80276 -0.29219,5.70276 -1.47811,8.66667 -1.76696,4.41607 -2.79202,5.38127 -5.67812,5.34652 -1.93704,-0.0233 -4.57633,-0.84271 -5.86509,-1.82087 z m -162.65588,-0.38898 c -2.93236,-0.76639 -4.2234,-5.70024 -3.08268,-11.7808 0.95092,-5.06887 7.41087,-10.25549 14.4151,-11.57373 3.63168,-0.6835 5.20913,0.85762 2,1.95394 -1.32063,0.45116 -1.33153,1.47797 -0.0525,4.94552 1.33938,3.6312 1.25527,5.08525 -0.49412,8.54174 -4.16081,8.22101 -6.37206,9.58959 -12.7858,7.91333 z m 29.23077,-4.24986 c -4.72723,-3.11678 -7.94006,-9.1554 -6.95638,-13.07471 0.96181,-3.83217 6.85354,-9.75651 9.7028,-9.75651 3.2892,0 10.77166,5.57606 11.59531,8.64103 1.5781,5.87241 0.72586,10.92613 -2.32602,13.79322 -3.77453,3.54599 -7.07424,3.65501 -12.01571,0.39697 z M 180.15783,396.2565 c 0,-1.10995 0.51432,-3.05995 1.14294,-4.33333 0.62862,-1.27338 2.05204,-4.11524 3.16314,-6.31524 1.11111,-2.2 2.80834,-7.3 3.77164,-11.33334 1.67201,-7.00076 4.9167,-12.78335 6.36196,-11.33809 1.64954,1.64954 1.4768,10.63387 -0.32085,16.68722 -3.39706,11.43913 -14.11883,24.06999 -14.11883,16.63278 z m 173.19609,-5.81908 c -5.57013,-5.63683 -6.85034,-9.33522 -6.28806,-18.16558 0.30342,-4.76515 0.26185,-8.66391 -0.0924,-8.66391 -0.35423,0 -3.49031,2.4 -6.96907,5.33333 -5.73729,4.83775 -9.17993,6.56064 -9.17993,4.59414 0,-0.40655 3.46019,-4.75952 7.68931,-9.67326 4.22913,-4.91373 9.15667,-11.3311 10.9501,-14.26081 1.79343,-2.9297 4.03324,-6.11959 4.97735,-7.08864 0.94411,-0.96905 1.71657,-2.26019 1.71657,-2.86921 0,-0.60901 2.39906,-6.17929 5.33124,-12.37839 4.74578,-10.03335 8.00209,-21.24048 8.00209,-27.54054 0,-2.43202 -8.57336,-3.36079 -28.84249,-3.12456 -10.58534,0.12337 -20.06134,3.07692 -22.4925,7.01063 -1.62739,2.63317 -3.24262,-0.0633 -1.99834,-3.33603 0.71336,-1.87628 0.73326,-3.54682 0.0473,-3.97077 -1.40618,-0.86907 0.44159,-8.07181 2.7996,-10.91303 4.90892,-5.91489 18.72554,-8.32483 28.32006,-4.93969 6.32625,2.23203 6.16639,2.23201 6.16639,6.8e-4 0,-1.00256 -2.47424,-3.4602 -5.49832,-5.46144 -5.32704,-3.52527 -5.64893,-3.57393 -10.33333,-1.56209 -4.57883,1.9665 -8.17071,2.67881 -11.76533,2.33322 -0.95036,-0.0914 -1.76017,-2.88938 -2,-6.91023 l -0.40302,-6.75668 -5.37787,4.61339 c -4.16463,3.57261 -5.78393,6.2249 -7.17777,11.75668 -2.32291,9.21894 -5.45281,17.1433 -6.77113,17.1433 -1.17831,0 -2.53814,-5.71985 -3.56316,-14.98774 -0.6739,-6.09307 -0.84557,-6.30949 -4.75951,-6 -5.78456,0.45741 -6.01822,-2.41215 -0.41299,-5.072 4.55984,-2.16379 11.39577,-8.91976 11.39577,-11.26247 0,-0.95626 4.54529,-4.79373 16.60452,-14.01873 1.43249,-1.09582 4.13249,-2.08613 6,-2.2007 1.86751,-0.11456 5.19548,-0.33193 7.39548,-0.48305 4.59492,-0.31561 20.71142,3.16084 22.6,4.875 0.69666,0.63233 2.30298,1.14969 3.56959,1.14969 1.26661,0 4.16385,2.25 6.4383,5 4.37017,5.28389 7.37226,13.21267 9.93889,26.24945 3.66087,18.59482 -3.96217,47.66856 -19.24978,73.41721 l -3.95815,6.66667 0.82097,16.15758 c 0.45153,8.88666 0.30029,16.45994 -0.33609,16.82949 -0.63638,0.36956 -2.11881,-0.30135 -3.29429,-1.49091 z m 16.70496,-100.60654 c -0.90251,-2.35189 -3.23439,-3.0719 -3.23439,-0.99867 0,2.8644 1.75584,5.5532 2.88742,4.42163 0.66,-0.66 0.81613,-2.20033 0.34697,-3.42296 z M 198.82449,356.60614 C 181.0771,342.99803 174.98728,331.704 167.73118,298.94126 c -3.72994,-16.84145 -3.77175,-17.45019 -1.57541,-22.93938 2.42465,-6.0598 21.51929,-25.29417 28.63386,-28.84338 5.31742,-2.65268 23.09794,-4.14582 26.66105,-2.2389 3.43936,1.84069 7.81365,9.30859 9.91586,16.92861 5.37432,19.48071 6.05031,22.27847 5.51278,22.816 -0.75438,0.75438 -7.7426,-6.76861 -13.01784,-14.01403 -3.89444,-5.34893 -6.37032,-6.3045 -6.37032,-2.45866 0,2.27904 -6.75956,5.05854 -12.3172,5.06477 -7.41047,0.008 -25.56792,3.85034 -27.87595,5.89841 -2.92939,2.59945 -3.91628,8.12593 -1.60918,9.01125 0.99128,0.38039 1.80233,0.0843 1.80233,-0.65806 0,-2.80727 6.18139,-7.80203 10.66667,-8.619 9.9044,-1.80405 23.39287,-1.07358 27.28663,1.47772 4.74811,3.11108 9.83617,14.46057 14.60347,32.57465 2.0265,7.7 4.2438,15.50697 4.92732,17.34882 2.46263,6.63586 3.57416,17.31785 1.80204,17.31785 -1.82522,0 -4.84587,-5.78388 -8.55082,-16.37291 -1.33945,-3.82823 -4.75285,-12.89268 -7.58533,-20.14322 l -5.14998,-13.1828 -9.79856,-0.59451 c -5.3892,-0.32699 -13.4892,-1.36457 -18,-2.30575 -4.51079,-0.94118 -8.71189,-1.41862 -9.33577,-1.06098 -0.62387,0.35763 -0.7593,2.52533 -0.30095,4.81709 0.45835,2.29176 1.18759,7.16899 1.62052,10.83829 0.80755,6.8443 5.2374,18.79845 9.66275,26.07536 1.37111,2.2546 6.16621,7.94061 10.6558,12.63558 4.5218,4.72867 8.16288,9.74605 8.16288,11.24841 0,3.76315 -0.97105,3.45557 -9.33334,-2.95635 z m 273.85489,-5.99821 c -14.39099,-12.78603 -27.18823,-25.51018 -27.18823,-27.03296 0,-5.57012 20.93734,5.536 35.02544,18.5791 9.27005,8.58243 11.64384,13.17943 8.13172,15.74756 -3.84278,2.80991 -5.39504,2.10092 -15.96893,-7.2937 z m -414.411549,6.41761 c -2.1395,-0.41302 -4.16235,-1.56949 -4.49522,-2.56993 -1.06479,-3.20026 15.093487,-16.86923 26.449927,-22.37512 5.83009,-2.82658 10.60057,-5.62044 10.60106,-6.20859 4.9e-4,-0.58815 -1.751,-1.68007 -3.8922,-2.4265 -4.20204,-1.46484 -5.81126,-3.98584 -4.58465,-7.18232 1.28079,-3.3377 7.04325,-3.88498 14.11824,-1.34085 3.621492,1.30227 9.828972,2.33861 13.794392,2.30298 3.96542,-0.0356 7.48267,0.37664 7.81612,0.91616 0.33344,0.53953 -0.41429,2.66819 -1.66164,4.73037 -1.94618,3.21753 -3.30001,3.83215 -9.5437,4.33269 -6.16386,0.49413 -8.200682,1.39587 -13.327412,5.90022 -3.32837,2.92432 -6.95158,6.0605 -8.05158,6.96929 -1.1,0.90879 -5.9,4.97886 -10.66667,9.0446 -9.764767,8.32889 -11.090797,8.96217 -16.556667,7.907 z m 440.459259,-8.98129 c -6.48792,-2.72797 -17.51464,-11.38766 -22.47465,-17.65018 l -4.29256,-5.4198 3.41959,-1.55807 c 2.77277,-1.26335 4.36795,-1.13042 8.43333,0.70281 6.41805,2.89414 26.44353,21.17214 25.2724,23.06707 -1.5248,2.46717 -5.70728,2.81369 -10.35811,0.85817 z m -462.235919,-0.078 c -4.49648,-0.81498 -3.71475,-2.74962 4.13274,-10.22784 10.33805,-9.85157 10.58603,-9.99033 19.44393,-10.87976 10.375267,-1.0418 10.563767,0.67328 1.08999,9.91733 -9.20048,8.97739 -17.101,12.56153 -24.66666,11.19027 z m -11.33334,-18.61076 c -1.28333,-0.33537 -2.33333,-1.19446 -2.33333,-1.90909 0,-2.0345 12.02298,-12.87887 16.78274,-15.13752 5.93998,-2.8187 11.22948,-2.67713 11.1729,0.29905 -0.0575,3.02556 -3.11812,6.48955 -11.1916,12.66666 -6.17246,4.72262 -8.95932,5.51073 -14.43071,4.0809 z m 483.428659,-2.36197 c -6.23521,-2.71206 -16.42868,-13.54793 -16.42868,-17.46401 0,-2.60661 0.68248,-3.25492 3.42644,-3.25492 4.44688,0 13.82911,6.50124 19.23817,13.33074 6.46933,8.16819 3.53905,11.63992 -6.23593,7.38819 z m -65.09534,-10.80628 c -0.73333,-0.19033 -2.8904,-0.68665 -4.79347,-1.10292 -1.90308,-0.41627 -6.84271,-3.91876 -10.97695,-7.78329 -4.13424,-3.86454 -8.94129,-8.17002 -10.68233,-9.56773 -1.74105,-1.39772 -3.79126,-3.54324 -4.55603,-4.76782 -1.22333,-1.95887 -0.57207,-2.26387 5.41754,-2.53717 4.1869,-0.19104 8.76073,0.5699 11.87989,1.97645 2.78953,1.2579 5.42472,1.93424 5.85598,1.50299 1.42756,-1.42757 -3.90791,-7.07403 -10.35757,-10.96127 -3.49438,-2.10608 -10.23631,-7.47158 -14.98208,-11.92333 -7.31663,-6.86334 -9.6341,-10.24727 -15.24097,-22.25455 -3.63677,-7.78826 -7.4037,-14.64957 -8.37096,-15.24737 -0.96726,-0.5978 -3.72559,-0.95444 -6.12964,-0.79254 -2.40404,0.1619 -6.14484,-0.62292 -8.31288,-1.74406 -2.16804,-1.12114 -5.02384,-2.21888 -6.34621,-2.43943 -7.71643,-1.28696 -16.76218,-10.31554 -15.6086,-15.57898 0.40482,-1.84706 0.79139,-4.02139 0.85905,-4.83185 0.0677,-0.81046 2.29161,0.56871 4.94213,3.06481 5.19523,4.89256 7.77632,6.53837 18.06977,11.52196 11.97781,5.79909 15.14647,6.40698 18.08408,3.46937 1.42042,-1.42042 3.48258,-2.58258 4.58258,-2.58258 1.33334,0 2,-1.33334 2,-4 0,-4.10187 0.13323,-4.02895 -8.27843,-4.53075 -1.25314,-0.0748 -3.51,-1.18592 -5.01524,-2.46925 -3.64572,-3.10826 -4.66363,-2.95078 -6.46372,1 -1.23568,2.71201 -2.45607,3.32543 -6.54735,3.29093 -6.62862,-0.0559 -8.08421,-1.44437 -14.17747,-13.52375 -4.35083,-8.62516 -4.95081,-10.79309 -3.87096,-13.9872 1.24028,-3.66867 1.53915,-3.77527 10.14888,-3.61999 l 8.87096,0.15998 v -6.08832 c 0,-13.16685 -19.36512,-32.10907 -32.92131,-32.20237 -6.00731,-0.0414 -6.71389,2.27788 -1.95488,6.41655 2.2478,1.95479 4.26449,4.75417 4.48155,6.22083 0.21705,1.46667 0.9257,3.05218 1.57478,3.52335 0.64907,0.47118 -0.22054,1.6063 -1.93247,2.5225 -2.73446,1.46344 -3.36378,1.30665 -5.18013,-1.29058 -5.40199,-7.72437 -10.60098,-12.0886 -14.40082,-12.0886 -5.24482,0 -5.90843,0.99833 -3.61354,5.43617 1.07075,2.0706 1.94682,4.93034 1.94682,6.35497 0,1.42462 0.9,2.93559 2,3.3577 7.32147,2.8095 -4.59703,4.01922 -14.47515,1.46922 -5.86339,-1.51362 -6.96609,1.77786 -2.24701,6.70715 3.87936,4.05216 4.49965,5.65751 4.21348,10.90472 -0.17137,3.14208 -7.44893,6.45242 -13.23118,6.01847 -4.57661,-0.34348 -2.4441,1.80596 5.78726,5.83319 5.61221,2.7458 8.49504,3.40033 12.30742,2.79432 8.05364,-1.28019 9.09274,0.57763 3.52791,6.30755 -2.66462,2.74368 -5.65909,4.67601 -6.65438,4.29408 -0.99529,-0.38192 -2.16424,-0.12061 -2.59767,0.58069 -0.43343,0.70131 -2.22441,1.2751 -3.97996,1.2751 -3.61749,0 -9.98405,2.5962 -9.98405,4.07137 0,1.27466 3.51141,2.5953 6.90054,2.5953 1.5321,0 2.9721,1.10765 3.35788,2.58287 0.54633,2.08916 1.26539,2.35858 3.76174,1.40947 4.52468,-1.72028 5.54876,2.18254 1.6842,6.41853 -17.10084,18.74445 -30.37102,30.55954 -30.37102,27.04081 0,-2.8499 9.53325,-17.35097 13.96481,-21.24193 2.58602,-2.27055 4.70185,-4.74661 4.70185,-5.50235 0,-0.79822 -3.5306,-1.37407 -8.42466,-1.37407 -12.03341,0 -21.77968,-3.17532 -24.75296,-8.06447 -2.55503,-4.20142 -2.55866,-12.80957 -0.009,-20.87024 0.95035,-3.00424 0.9048,-5.10014 -0.15382,-7.0782 -2.09425,-3.91314 -0.37018,-10.43161 3.77517,-14.27339 3.86964,-3.58626 7.69095,-9.47237 13.23113,-20.38036 4.78812,-9.42689 14.5901,-22.66667 16.78131,-22.66667 2.58383,0 10.64642,-8.8972 9.59875,-10.59237 -0.56103,-0.90776 -2.65968,-1.16319 -5.37374,-0.65403 -3.91059,0.73363 -4.50716,0.46703 -4.89602,-2.18798 -0.76395,-5.21594 -3.77616,-4.67835 -3.77616,0.67393 0,4.35201 -0.54648,5.06061 -5.91395,7.66833 l -5.91395,2.87322 -4.78015,-3.646 c -10.35724,-7.89985 -10.58296,-13.76986 -0.77899,-20.25782 5.80823,-3.84371 6.50988,-5.1611 3.38704,-6.35945 -1.1,-0.42211 -2,-0.25753 -2,0.36573 0,0.94653 -9.81193,4.11644 -12.74176,4.11644 -0.49183,0 -0.62617,-1.82642 -0.29854,-4.0587 0.67621,-4.60738 -0.31536,-5.566504 -6.16202,-5.960416 -31.96927,-2.153888 -37.92292,-2.256364 -42.54109,-0.732232 -5.60904,1.851148 -5.45252,3.959288 0.28184,3.796248 2.10399,-0.0598 5.76618,1.27316 8.1382,2.96219 4.11088,2.92721 4.27616,3.38001 3.53084,9.6731 -0.43006,3.63118 -1.49273,7.45861 -2.36149,8.50539 -1.34495,1.62057 -2.0449,1.46607 -4.71276,-1.04025 -1.72327,-1.61893 -3.13321,-3.78291 -3.13321,-4.80885 0,-1.05976 -1.0077,-1.67021 -2.33334,-1.41351 -1.90583,0.36905 -2.36454,1.99616 -2.50366,8.88085 -0.17972,8.89349 -2.37543,14.86285 -5.467,14.86285 -1.01936,0 -1.48681,-0.59313 -1.03878,-1.31806 0.46712,-0.75582 -0.0681,-0.97935 -1.25464,-0.52402 -1.14621,0.43984 -2.06925,0.0956 -2.06925,-0.77179 0,-0.95907 -1.03334,-1.23786 -2.66667,-0.71947 -1.52975,0.48553 -2.66666,0.2396 -2.66666,-0.57681 0,-3.15953 -2.29721,-1.08992 -5.02711,4.52903 -2.00651,4.13 -4.47462,6.75971 -8.06201,8.58986 -5.16926,2.63716 -9.57755,7.77453 -9.57755,11.16156 0,3.35538 -7.30243,8.74133 -15.62461,11.52401 -4.5602,1.5248 -8.9102,2.77235 -9.66666,2.77235 -2.87338,0 -1.16844,-3.9435 4.4052,-10.18913 11.41722,-12.79374 17.54096,-26.71848 19.55018,-44.45498 1.63648,-14.44611 2.76045,-17.12492 8.86066,-21.117948 8.32545,-5.449609 3.63636,-4.736834 -7.12232,1.082644 -5.72135,3.094734 -12.80245,5.888284 -15.73578,6.207884 -6.74879,0.73531 -14.08037,2.99095 -16.66667,5.12769 -1.1,0.90879 -3.78159,2.0774 -5.95909,2.5969 -2.17751,0.51949 -7.28934,3.00008 -11.35963,5.51241 -4.07029,2.51233 -7.89608,4.56787 -8.50174,4.56787 -0.60567,0 -2.76465,1.18447 -4.79774,2.63215 -2.03308,1.44769 -5.8558,2.89998 -8.49492,3.22731 -2.63913,0.32733 -5.40592,0.97061 -6.14842,1.4295 -1.840922,1.13776 -6.373122,-1.44831 -8.059042,-4.59848 -0.75993,-1.41995 -1.71904,-6.6562 -2.13134,-11.6361 l -0.74965,-9.05438 8.43412,-9.849235 C 111.49772,79.67362 116.1181,75.098453 130.8245,62.981809 c 12.51003,-10.307057 17.742,-13.485699 34.66666,-21.061452 7.20667,-3.22582 20.96214,-7.645764 23.79468,-7.645764 1.40001,0 3.22992,-0.824718 4.06648,-1.832707 2.09848,-2.528519 12.05345,-3.73334 35.05524,-4.242634 15.65895,-0.346713 21.68003,0.06725 30.04788,2.065852 22.39673,5.349312 41.22731,18.410331 53.17692,36.883874 5.40535,8.356422 11.41987,21.246076 10.95948,23.487141 -0.60542,2.947028 6.11731,11.667411 9.56598,12.408491 18.85105,4.05089 33.25666,10.27639 40.66667,17.57443 7.72211,7.60544 16.2068,28.33124 21.41958,52.32222 5.08273,23.39245 9.20179,33.45961 22.36728,54.66667 7.34397,11.8297 18.21313,31.98156 18.21313,33.76786 0,1.88813 14.06438,13.73482 18.34155,15.44943 4.23426,1.69741 5.93137,1.58702 17.13867,-1.11481 7.6415,-1.84219 13.98345,-2.65955 16.44337,-2.11927 3.63527,0.79844 10.74308,7.373 10.74308,9.9371 0,4.47245 -3.10208,15.68417 -4.88444,17.65366 -4.27842,4.72759 -11.05845,2.09407 -12.095,-4.69798 -0.24038,-1.57516 -1.27891,-3.70577 -2.30783,-4.73469 -2.3647,-2.3647 -8.21555,-0.26863 -15.91358,5.70108 -3.75662,2.9132 -6.62608,4.02485 -10.33333,4.0032 -4.14326,-0.0242 -5.13249,0.45268 -5.13249,2.47424 0,1.37732 0.45662,2.22202 1.01471,1.8771 2.10567,-1.30138 5.90495,2.90551 5.05174,5.59372 -0.80832,2.54679 -6.62342,5.50927 -9.39978,4.78867 z m -32,-73.91265 c -0.45322,-0.73333 -1.72404,-1.33333 -2.82404,-1.33333 -1.1,0 -1.62918,0.6 -1.17596,1.33333 0.45323,0.73334 1.72405,1.33334 2.82405,1.33334 1.1,0 1.62918,-0.6 1.17595,-1.33334 z m -35.75585,-68.25 c -0.42563,-1.06364 -0.74157,-0.7477 -0.80555,0.80556 -0.0579,1.40555 0.25724,2.19305 0.70029,1.75 0.44306,-0.44306 0.49043,-1.59306 0.10526,-2.55556 z M 102.29698,117.1664 c -0.3767,-0.6095 1.40271,-1.92731 3.95425,-2.92845 2.61918,-1.02769 5.45114,-3.44794 6.50401,-5.55848 2.38869,-4.78823 1.26498,-4.70247 -7.79809,0.59512 -7.645412,4.46895 -10.022022,9 -4.72063,9 1.50995,0 2.43715,-0.49868 2.06046,-1.10819 z M 218.15783,90.305261 c 7.65308,-1.731004 49.6707,-0.630473 52.07381,1.363924 0.92983,0.771698 2.42708,0.528577 4.03558,-0.655292 3.69848,-2.722123 3.51741,-2.764829 -29.44273,-6.943907 -6.45453,-0.818381 -17.54772,-6.221323 -21.69433,-10.566224 -1.66521,-1.744846 -3.37637,-4.916025 -3.80258,-7.047064 -0.69529,-3.476455 -1.44054,-3.962913 -7.25218,-4.733855 -3.56249,-0.472581 -8.00133,-0.476722 -9.86408,-0.0092 -2.14804,0.539122 -3.38683,0.292321 -3.38683,-0.674751 0,-1.075853 -0.73351,-1.132223 -2.49135,-0.191455 -1.37025,0.733333 -2.85575,0.968943 -3.30112,0.523577 -0.44536,-0.445366 -1.57425,-0.177342 -2.50864,0.595607 -0.93439,0.77295 -6.79889,1.79161 -13.03222,2.263688 -6.23333,0.472078 -12.68333,1.136596 -14.33333,1.476707 -2.2091,0.455357 -3.00539,-0.0035 -3.02042,-1.740353 -0.013,-1.499353 -0.37732,-1.804636 -1,-0.837905 -0.53877,0.836457 -3.67078,2.920632 -6.96001,4.6315 -3.28924,1.710868 -8.98924,6.031246 -12.66667,9.60084 -3.67743,3.569594 -8.38227,7.935419 -10.4552,9.701833 -4.17753,3.559815 -3.27938,3.90656 6.1023,2.355865 3.27497,-0.541319 5.05336,-1.571275 5.15467,-2.985326 0.12926,-1.804317 0.25481,-1.775665 0.76443,0.174457 0.72729,2.783083 3.37114,3.179534 2.80601,0.420769 -0.21548,-1.05191 0.20822,-1.924641 0.94155,-1.939403 0.73334,-0.01476 1.13624,1.201273 0.89534,2.702299 -0.33756,2.103361 0.12103,2.564905 2,2.012885 1.3409,-0.393939 5.138,-0.852871 8.438,-1.01985 7.17059,-0.36283 10.66666,-1.878701 10.66666,-4.624981 0,-2.657478 7.18414,-5.572183 15.53831,-6.304105 3.67983,-0.322397 7.94965,-1.259999 9.48849,-2.083561 1.53884,-0.823563 4.5969,-1.497387 6.7957,-1.497387 7.88529,0 6.27467,9.142134 -2.55682,14.512887 -2.15752,1.312067 -3.47492,2.839571 -2.92756,3.394452 1.23807,1.255068 16.07397,0.14117 24.99522,-1.876671 z m -67.12507,-7.492325 c -2.45986,-2.782711 -0.83903,-8.367328 2.82897,-9.747336 4.22263,-1.588669 11.30035,-0.238432 12.29167,2.344917 1.08692,2.832469 -6.2469,9.54988 -10.34994,9.480027 -1.63843,-0.02789 -3.78525,-0.962818 -4.7707,-2.077608 z m 161.83634,1.68388 c 0.0245,-0.855556 -0.27888,-1.855556 -0.67425,-2.222223 -0.39538,-0.366666 -2.4566,-3.066666 -4.58049,-6 -12.23132,-16.892799 -30.69409,-29.996392 -49.45654,-35.100809 -15.90291,-4.326468 -47.57499,-5.238289 -52.08012,-1.499357 -1.49608,1.241638 -1.91987,1.226958 -1.91987,-0.0665 0,-1.155063 -0.50687,-1.251536 -1.66667,-0.317224 -0.91667,0.738447 -3.57521,1.750481 -5.90787,2.248965 -2.33266,0.498485 -5.03266,1.880107 -6,3.070271 -1.53969,1.894361 -1.42659,2.032487 0.90787,1.108764 5.95363,-2.355791 9.4555,-3.01355 11.74387,-2.205861 1.32579,0.467945 6.6983,0.45779 11.93891,-0.02257 5.24061,-0.480356 11.35587,-0.342354 13.58947,0.306672 2.23359,0.649026 5.69906,0.826973 7.70104,0.395438 8.24114,-1.776411 27.90256,5.021139 38.99499,13.481749 2.34359,1.787542 5.40947,5.647029 6.81306,8.576637 1.40359,2.929608 3.00199,5.333444 3.55199,5.341857 0.55,0.0084 1,0.840298 1,1.848631 0,1.008333 1.85513,2.20436 4.12252,2.657837 2.57919,0.515839 4.38444,1.826111 4.82217,3.5 0.38481,1.471523 1.07968,2.720082 1.54415,2.774576 3.92601,0.460621 7.58692,1.538712 10.6033,3.122541 3.68418,1.934474 4.87522,1.694125 4.95247,-0.999398 z M 100.41541,309.39403 c -0.958342,-0.39903 -3.241602,-2.22467 -5.073922,-4.05699 -2.7564,-2.7564 -4.13043,-3.18161 -7.95973,-2.46323 -3.94282,0.73968 -5.166,0.30962 -8.25942,-2.90397 -1.99714,-2.07473 -4.85377,-5.49845 -6.34805,-7.60826 l -2.71687,-3.83602 -4.878847,4.28368 c -2.68337,2.35603 -4.57402,5.07805 -4.20145,6.04895 0.42278,1.10175 -0.96986,2.3395 -3.7051,3.293 -3.94233,1.37431 -4.61989,1.22288 -6.74622,-1.50776 -5.19053,-6.66566 -4.99705,-14.12284 0.58757,-22.64603 3.4844,-5.31788 8.72111,-5.78886 20.223297,-1.81884 15.31261,5.28521 20.67946,4.6137 32.937922,-4.12122 5.08306,-3.62199 17.21657,-18.63249 17.21657,-21.2988 0,-1.47287 7.02203,-9.16511 9.83166,-10.77003 6.10528,-3.48747 16.83501,-0.60983 16.83501,4.51504 0,1.87778 0.3071,1.87651 3.19104,-0.0131 6.00919,-3.93737 15.47562,-0.33343 15.47562,5.89168 0,5.37758 -8.39506,13.34689 -20.53758,19.49602 -7.59557,3.84651 -14.07799,8.34632 -20.30948,14.09796 -4.11564,3.79872 -4.24665,3.82423 -8.45724,1.64685 -2.35226,-1.21641 -4.39086,-2.0174 -4.53022,-1.78 -0.13937,0.23741 -0.98784,1.39824 -1.88551,2.57962 -1.3015,1.71284 -1.22507,3.12218 0.37729,6.95717 2.57498,6.1628 2.49838,8.86679 -0.35357,12.4807 -2.39638,3.03662 -7.70269,4.78691 -10.71277,3.5336 z m 138.54133,-58.87232 c -0.79647,-1.48822 -2.20205,-3.52971 -3.12352,-4.53665 -0.92147,-1.00694 -3.12998,-3.45373 -4.90781,-5.4373 l -3.23242,-3.6065 h 5.25279 c 5.1148,0 5.31645,0.17924 7.6761,6.82298 1.59942,4.50328 1.97448,7.27182 1.10315,8.14315 -0.87133,0.87133 -1.8125,0.40022 -2.76829,-1.38568 z m -84.79891,-16.55102 c -2.2,-0.76312 -4.83139,-2.04794 -5.84754,-2.85516 -1.01615,-0.80722 -4.91615,-1.77971 -8.66667,-2.16109 l -6.81912,-0.69341 4.39207,-2.25366 c 2.41564,-1.23952 7.21564,-2.63096 10.66667,-3.0921 3.45102,-0.46113 8.15673,-1.79383 10.45712,-2.96154 4.72667,-2.39934 5.81747,-6.73942 5.81747,-23.14662 0,-7.66268 0.46351,-9.52713 2.9427,-11.83685 3.15907,-2.94312 12.33271,-5.96753 14.33924,-4.72743 1.37461,0.84956 -3.71103,11.45327 -6.28194,13.09802 -2.12979,1.36253 -2.13129,8.49163 -0.003,16.44732 1.28787,4.8152 2.80575,6.97461 6.72621,9.56905 3.1623,2.09271 4.79038,4.06099 4.3368,5.24301 -0.39942,1.04085 -0.72621,2.34708 -0.72621,2.90273 0,1.19766 -6.21367,4.30756 -10,5.00493 -1.46667,0.27013 -4.46667,0.73596 -6.66667,1.03517 -2.2,0.29922 -5.5,0.83003 -7.33333,1.17958 -1.83333,0.34955 -5.13333,0.0112 -7.33333,-0.75195 z m 70,-5.05844 c -9.68963,-1.69356 -12.79139,-3.44647 -16.88975,-9.54495 -5.23917,-7.79604 -7.4008,-13.40745 -6.87931,-17.85804 l 0.43572,-3.71865 3.9505,5.72322 c 3.75661,5.44235 10.95658,9.87973 20.71617,12.7675 1.83333,0.54246 3.93333,1.4572 4.66666,2.03274 1.41416,1.10987 7.34769,1.82907 12.33334,1.49492 5.57455,-0.37362 4.03905,-3.11027 -8.66667,-15.44623 -9.43453,-9.15997 -9.77172,-10.52595 -5.54029,-22.44412 1.53618,-4.32676 2.48855,-9.03123 2.11639,-10.45438 -1.65957,-6.34619 5.46154,-17.84455 9.50408,-15.34613 0.6586,0.40704 1.30023,4.80876 1.42585,9.7816 0.15649,6.19479 0.84743,9.50761 2.19452,10.52185 1.08136,0.81418 1.96612,2.20461 1.96612,3.08985 0,0.95454 0.99569,1.29351 2.44673,0.83297 1.90173,-0.60359 3.16397,0.61948 5.66667,5.49079 2.82176,5.49235 3.21246,8.00922 3.15952,20.35338 -0.0384,8.94474 -0.72526,15.54599 -1.88197,18.08602 -1.00187,2.2 -1.72468,4.45 -1.60626,5 0.27597,1.28173 -21.24372,1.01395 -29.11802,-0.36234 z m 27.72949,-64.1081 c -2.41789,-3.00874 -4.39616,-5.95874 -4.39616,-6.55555 0,-0.59682 -0.50291,-1.58512 -1.11758,-2.19623 -0.61467,-0.61111 -1.93342,-3.05957 -2.93054,-5.44103 -1.17837,-2.81433 -2.65401,-4.24989 -4.21575,-4.10127 -1.32154,0.12576 -4.3528,-0.25078 -6.73613,-0.83675 -5.41627,-1.33164 -5.64773,-4.45344 -0.94553,-12.75268 1.86329,-3.28866 3.73327,-7.02938 4.15551,-8.31271 0.42224,-1.28334 1.44772,-2.42473 2.27886,-2.53642 4.6954,-0.63102 5.71401,-0.46512 7.78201,1.26745 1.24898,1.04638 4.00028,2.03857 6.11403,2.20484 2.11374,0.16628 4.45251,0.67893 5.19728,1.13922 0.74477,0.46029 1.74535,6.4067 2.22351,13.21423 0.47816,6.80754 1.22631,14.95219 1.66254,18.09922 0.97298,7.01904 -0.21098,12.27812 -2.76412,12.27812 -1.05147,0 -3.89004,-2.46169 -6.30793,-5.47044 z m -112.67402,0.27328 c -1.37572,-2.17875 0.26172,-9.4695 2.12677,-9.4695 0.50675,0 2.58316,-3.15 4.61424,-7 4.3933,-8.32768 7.05358,-11.63763 11.53685,-14.35427 4.51502,-2.73588 10.66667,-1.92987 10.66667,1.39759 0,2.90932 -4.061,11.95668 -5.36687,11.95668 -0.48014,0 -1.67305,2.42426 -2.65093,5.38726 -1.09383,3.31433 -2.42105,5.14048 -3.44926,4.74592 -1.82576,-0.70061 -5.39317,2.78437 -4.13657,4.04097 0.42701,0.42701 -0.24838,1.87633 -1.50087,3.22072 -2.79001,2.99472 -9.96766,3.03996 -11.84003,0.0746 z M 106.31015,146.9031 c -2.92468,-2.92468 -0.93425,-7.12729 4.96942,-10.49246 3.96428,-2.2597 5.1358,-2.45774 6.04666,-1.02217 0.62136,0.9793 1.51266,1.7293 1.98067,1.66667 3.49816,-0.46816 4.85093,0.24285 4.85093,2.54963 0,1.89133 -2.0051,3.63081 -6.91621,6 -8.13283,3.92341 -8.28796,3.94184 -10.93147,1.29833 z m 22.6588,-19.06144 c -0.37377,-0.60478 1.99082,-2.39698 5.25465,-3.98267 4.28572,-2.08216 5.93423,-2.40089 5.93423,-1.14735 0,0.95465 -2.12036,2.74685 -4.7119,3.98267 -5.43233,2.59049 -5.57,2.61488 -6.47698,1.14735 z m 17.85554,-10.81199 c 0,-1.96135 6.96114,-6.89419 9.13381,-6.47246 3.45049,0.66977 3.06689,3.19445 -0.76595,5.04111 -4.88922,2.35561 -8.36786,2.95065 -8.36786,1.43135 z M 286.62281,36.329322 c -1.62023,-1.863434 -3.66421,-3.388062 -4.54217,-3.388062 -2.94446,0 -4.61931,-3.517551 -3.74835,-7.872351 1.18337,-5.916822 4.47384,-4.853596 6.82616,2.205685 1.03854,3.116666 2.66828,5.666666 3.62164,5.666666 2.04131,0 3.65922,5.001988 1.95799,6.053401 -0.64316,0.397498 -2.49503,-0.801904 -4.11527,-2.665339 z M 161.49116,35.686616 c 0,-1.423388 0.53202,-2.916781 1.18226,-3.318653 1.62381,-1.003573 4.58448,2.793345 3.5205,4.51489 -1.45945,2.361447 -4.70276,1.536449 -4.70276,-1.196237 z m 13.8534,-7.347758 c 0.45581,-3.105667 4.86535,-8.73093 6.844,-8.73093 1.15833,0 2.05163,1.372659 2.16927,3.333333 0.11,1.833333 0.26,4.083333 0.33333,5 0.0817,1.020824 -1.75074,1.74315 -4.72873,1.864041 -3.21276,0.130422 -4.77923,-0.367026 -4.61787,-1.466444 z m 87.1466,-2.826897 c -3.32079,-1.801557 -3.66667,-2.687422 -3.66667,-9.391061 0,-9.2364022 1.82837,-9.0033542 6.93762,0.884284 5.52749,10.697053 4.70573,12.8342 -3.27095,8.506777 z M 196.15783,24.09864 c 0,-2.576837 5.08505,-11.157379 6.61215,-11.157379 1.69181,0 3.76443,3.046647 4.7535,6.987417 0.78078,3.110878 0.39663,3.835632 -2.64627,4.992541 -5.2606,2.000074 -8.71938,1.673775 -8.71938,-0.822579 z m 21.17979,-2.824046 c -0.63747,-4.151836 2.33071,-13.6666662 4.26336,-13.6666662 3.56036,0 9.15681,10.2051902 7.27035,13.2575522 -0.98257,1.589829 -11.29625,1.955667 -11.53371,0.409114 z m 20.59073,-1.260243 c 0.36481,-1.323533 1.07015,-4.801854 1.56743,-7.729602 0.49727,-2.9277484 1.1975,-5.7978522 1.55606,-6.3780072 0.81954,-1.326055 4.4397,3.3825082 8.05641,10.4785772 l 2.77471,5.444058 -7.30895,0.295699 c -6.47434,0.261933 -7.23321,0.02091 -6.64566,-2.110725 z"
       id="path1" />
  </g>
</svg>
